<svg width="512" height="512" viewBox="0 0 512 512" fill="none" xmlns="http://www.w3.org/2000/svg">
<path d="M256 512C397.385 512 512 397.385 512 256C512 114.615 397.385 0 256 0C114.615 0 0 114.615 0 256C0 397.385 114.615 512 256 512Z" fill="black"/>
<path fill-rule="evenodd" clip-rule="evenodd" d="M368.085 197.664C367.432 187.782 364.029 179.164 356.424 172.458L368.085 197.664ZM175.117 280.384C177.359 292.227 182.984 302.118 191.462 310.452C186.015 300.428 180.566 290.405 175.117 280.384ZM134.636 253.247C128.436 210.918 141.414 161.504 170.457 136.595C199.5 111.688 226.806 107.863 257.31 107.528C293.013 107.135 323.286 120.946 348.854 144.648C373.571 167.552 384.297 196.301 378.714 230.264C376.812 241.833 369.713 249.618 360.099 255.427C357.27 257.135 353.897 258.271 350.911 255.854C348.058 253.553 350.514 250.904 351.015 248.376C353.776 234.405 348.31 222.154 342.325 210.281C331.449 188.709 315.593 169.531 294.947 157.352C271.787 143.688 245.149 140.746 224.4 144.899C203.651 149.05 192.861 161.503 182.901 178.108C172.941 194.712 171.743 235.534 184.054 271.167C196.711 307.796 220.8 336.837 254.199 356.564C288.448 376.797 322.735 375.218 354.54 350.166C359.926 345.923 365.641 347.196 371.151 346.159C374.489 345.527 376.551 348.695 376.55 352.759C376.551 361.745 371.998 368.01 365.594 373.636C350.964 386.481 333.684 393.988 315.206 399.086C282.005 408.25 249.84 406.107 219.071 389.812C216.962 388.69 214.889 387.744 213.469 385.38C207.799 381.517 207.911 379.04 202.791 377.964C198.74 377.108 195.16 373.02 191.826 369.88C159.524 339.491 139.121 303.016 134.636 253.247Z" fill="white"/>
</svg>
